<svg xmlns="http://www.w3.org/2000/svg" viewBox="0 0 64 64" width="64" height="64">
  <defs>
    <linearGradient id="bg" x1="0" y1="0" x2="0" y2="1">
      <stop offset="0%" stop-color="#1e3a5f"/>
      <stop offset="100%" stop-color="#0d1f35"/>
    </linearGradient>
    <linearGradient id="screen" x1="0" y1="0" x2="0" y2="1">
      <stop offset="0%" stop-color="#112233"/>
      <stop offset="100%" stop-color="#0a1520"/>
    </linearGradient>
  </defs>
  <rect width="64" height="64" rx="14" fill="url(#bg)"/>
  <rect x="7" y="9" width="50" height="34" rx="5" fill="url(#screen)" stroke="#2a5a8a" stroke-width="1.5"/>
  <rect x="7" y="9" width="50" height="8" rx="5" fill="#1a3a5a"/>
  <rect x="7" y="13" width="50" height="4" fill="#1a3a5a"/>
  <circle cx="14" cy="13" r="2.2" fill="#e05555"/>
  <circle cx="21" cy="13" r="2.2" fill="#e0a830"/>
  <circle cx="28" cy="13" r="2.2" fill="#30b050"/>
  <rect x="13" y="22" width="16" height="2.5" rx="1.2" fill="#3a7abf" opacity="0.9"/>
  <rect x="13" y="27" width="26" height="2.5" rx="1.2" fill="#2a5a8a" opacity="0.7"/>
  <rect x="13" y="32" width="20" height="2.5" rx="1.2" fill="#3a7abf" opacity="0.6"/>
  <circle cx="48" cy="27" r="3.5" fill="#1a1a2a" stroke="#30b050" stroke-width="1.2"/>
  <circle cx="48" cy="27" r="1.8" fill="#30b050"/>
  <rect x="27" y="43" width="10" height="5" rx="2" fill="#1a3a5a"/>
  <rect x="21" y="48" width="22" height="3.5" rx="1.8" fill="#1a3a5a" stroke="#2a5a8a" stroke-width="1"/>
  <text x="32" y="58" font-family="monospace" font-size="6" fill="#4a9adf" text-anchor="middle" font-weight="bold">LocalMan</text>
</svg>
